<svg viewBox="0 0 445 70" xmlns="http://www.w3.org/2000/svg"><g fill="#2c3e50"><g><path d="m20.7 8.6h-19.4c-.7 0-1.3-.6-1.3-1.3v-2.5c0-.8.6-1.3 1.3-1.3h44.7c.7 0 1.3.6 1.3 1.3v2.5c0 .8-.6 1.3-1.3 1.3h-19.4v58.5c0 .8-.6 1.3-1.3 1.3h-3.3c-.7 0-1.3-.6-1.3-1.3z"/><path d="m58.9 30.4v36.7c0 .7-.6 1.3-1.3 1.3h-3c-.7 0-1.3-.6-1.3-1.3v-65.3c0-.7.6-1.3 1.3-1.3h3c.7 0 1.3.6 1.3 1.3v23.1c4.2-4 10-5.8 14.9-5.8 12.4 0 19.8 7.6 19.8 21.4v26.6c0 .7-.6 1.3-1.3 1.3h-2.9c-.7 0-1.3-.6-1.3-1.3v-26.4c0-11-5.2-16.6-14.9-16.6-5.6.1-10.9 2.4-14.3 6.3z"/><path d="m135 61.5c.9-.5 1.7-.2 1.8.8l.3 2.6c.1.7-.2 1.2-.8 1.5-3.8 2-8.7 3.1-13.9 3.1-16 0-24.1-11-24.1-25.4 0-15.2 8.6-25 21.4-25 13.2 0 21.4 10.2 21.4 24.7v1.5c0 .7-.6 1.3-1.3 1.3h-35.5c.5 10.9 7 17.9 18.3 17.9 4.6.1 8.7-.8 12.4-3zm0-19.7c-.3-10.6-6.3-17.6-15.4-17.6-9 0-14.9 6.6-15.3 17.6z"/></g><path d="m269.3.9h58.6v18.8h-36v7h32.9v16.6h-32.9v7.5h36.5v18.8h-59.1z"/><path d="m331.1.9h23v49.1h32.3v19.6h-55.3z"/><path d="m389.5.9h23v49.1h32.3v19.6h-55.3z"/></g><path d="m244 1.1-9.5 32 11.1 36 22.1-67.9c0-.1-23.8 0-23.7-.1z" fill="#3fa9f5"/><path d="m193.1 33 8.7 36 11.9-33.4-9.6-34.6z" fill="#f98c28"/><path d="m234.5 33-10.9-32-9.9 34.6 12 33.4z" fill="#6ab9d7"/><path d="m234.4 33.6-8.7 35.4h19.9l-11.1-36z" fill="#3fa9f5"/><path d="m234.4 33.6-8.7 35.4h19.9l-11.1-36z" fill="#2155af"/><path d="m204.1 1 9.6 34.6 9.9-34.6z" fill="#f98c28"/><path d="m204.1 1 9.6 34.6 9.9-34.6z" fill="#ffc000"/><path d="m183.5 1.1c-.1.1-23.7 0-23.7 0l22.1 67.9 11.2-36z" fill="#a71c93"/><path d="m193.1 33-11.2 36h19.9z" fill="#e53923"/></svg>